HIERARCHY
ROOT Hips
{
	OFFSET 0.000000 0.000000 0.000000
	CHANNELS 6 Xposition Yposition Zposition Xrotation Yrotation Zrotation
	JOINT LeftUpLeg_virtual
	{
		OFFSET 0.000000 0.000000 0.000000
		CHANNELS 3 Xrotation Yrotation Zrotation
		JOINT LeftUpLeg
		{
			OFFSET 15.427100 -6.655098 0.678600
			CHANNELS 3 Xrotation Yrotation Zrotation
			JOINT LeftLeg
			{
				OFFSET 4.081073 -39.591068 13.024000
				CHANNELS 3 Xrotation Yrotation Zrotation
				JOINT LeftFoot
				{
					OFFSET -4.081074 -37.707932 -15.979700
					CHANNELS 3 Xrotation Yrotation Zrotation
					JOINT LeftToeBase
					{
						OFFSET 5.346399 -15.068900 20.645000
						CHANNELS 3 Xrotation Yrotation Zrotation
						JOINT LeftToe_End
						{
							OFFSET 2.754700 0.931300 11.300900
							CHANNELS 3 Xrotation Yrotation Zrotation
							End Site
							{
								OFFSET 0 0 0
							}
						}
					}
				}
			}
		}
	}
	JOINT RightUpLeg_virtual
	{
		OFFSET 0.000000 0.000000 0.000000
		CHANNELS 3 Xrotation Yrotation Zrotation
		JOINT RightUpLeg
		{
			OFFSET -15.569500 -6.655098 0.678600
			CHANNELS 3 Xrotation Yrotation Zrotation
			JOINT RightLeg
			{
				OFFSET -4.081825 -39.591045 13.023800
				CHANNELS 3 Xrotation Yrotation Zrotation
				JOINT RightFoot
				{
					OFFSET 4.081824 -37.707954 -15.979600
					CHANNELS 3 Xrotation Yrotation Zrotation
					JOINT RightToeBase
					{
						OFFSET -5.346400 -15.068900 20.645000
						CHANNELS 3 Xrotation Yrotation Zrotation
						JOINT RightToe_End
						{
							OFFSET -2.754700 0.931300 11.300900
							CHANNELS 3 Xrotation Yrotation Zrotation
							End Site
							{
								OFFSET 0 0 0
							}
						}
					}
				}
			}
		}
	}
	JOINT Spine_virtual
	{
		OFFSET 0.000000 0.000000 0.000000
		CHANNELS 3 Xrotation Yrotation Zrotation
		JOINT Spine
		{
			OFFSET -0.279200 12.230698 -2.892100
			CHANNELS 3 Xrotation Yrotation Zrotation
			JOINT Spine1
			{
				OFFSET -0.232667 10.192268 -1.242267
				CHANNELS 3 Xrotation Yrotation Zrotation
				JOINT Spine1_split
				{
					OFFSET -0.232667 10.192268 -1.242267
					CHANNELS 3 Xrotation Yrotation Zrotation
					JOINT Spine2
					{
						OFFSET -0.232667 10.192268 -1.242267
						CHANNELS 3 Xrotation Yrotation Zrotation
						JOINT Neck_virtual
						{
							OFFSET 0.000000 0.000000 0.000000
							CHANNELS 3 Xrotation Yrotation Zrotation
							JOINT Neck
							{
								OFFSET -0.418800 17.814194 8.416900
								CHANNELS 3 Xrotation Yrotation Zrotation
								JOINT Head
								{
									OFFSET 0.000000 7.031097 3.806800
									CHANNELS 3 Xrotation Yrotation Zrotation
									JOINT HeadTop_End
									{
										OFFSET 0.000000 24.646606 12.978600
										CHANNELS 3 Xrotation Yrotation Zrotation
										End Site
										{
											OFFSET 0 0 0
										}
									}
								}
							}
						}
						JOINT LeftShoulder_virtual
						{
							OFFSET 0.000000 0.000000 0.000000
							CHANNELS 3 Xrotation Yrotation Zrotation
							JOINT LeftShoulder
							{
								OFFSET 8.476499 7.247704 -3.868750
								CHANNELS 3 Xrotation Yrotation Zrotation
								JOINT LeftShoulder_split
								{
									OFFSET 8.476499 7.247704 -3.868750
									CHANNELS 3 Xrotation Yrotation Zrotation
									JOINT LeftArm
									{
										OFFSET 9.308998 -2.777710 0.208600
										CHANNELS 3 Xrotation Yrotation Zrotation
										JOINT LeftForeArm
										{
											OFFSET 29.972298 0.000000 0.000000
											CHANNELS 3 Xrotation Yrotation Zrotation
											JOINT LeftHand
											{
												OFFSET 26.026505 0.000000 0.000000
												CHANNELS 3 Xrotation Yrotation Zrotation
												End Site
												{
													OFFSET 0 0 0
												}
											}
										}
									}
								}
							}
						}
						JOINT RightShoulder_virtual
						{
							OFFSET 0.000000 0.000000 0.000000
							CHANNELS 3 Xrotation Yrotation Zrotation
							JOINT RightShoulder
							{
								OFFSET -7.570500 7.247704 -3.868750
								CHANNELS 3 Xrotation Yrotation Zrotation
								JOINT RightShoulder_split
								{
									OFFSET -7.570500 7.247704 -3.868750
									CHANNELS 3 Xrotation Yrotation Zrotation
									JOINT RightArm
									{
										OFFSET -9.308998 -2.777710 0.208500
										CHANNELS 3 Xrotation Yrotation Zrotation
										JOINT RightForeArm
										{
											OFFSET -29.972300 0.000000 0.000000
											CHANNELS 3 Xrotation Yrotation Zrotation
											JOINT RightHand
											{
												OFFSET -26.026505 0.000000 0.000000
												CHANNELS 3 Xrotation Yrotation Zrotation
												End Site
												{
													OFFSET 0 0 0
												}
											}
										}
									}
								}
							}
						}
					}
				}
			}
		}
	}
}
MOTION
Frames: 4
Frame Time: 0.03333333
1.007876 76.436638 0.023216 0.000000 0.000000 0.000000 7.282013 -11.451254 3.811560 -48.830009 5.016770 21.187506 42.193494 3.330468 7.971647 1.771880 0.896484 -22.548707 0.904527 0.473581 -0.906872 0.000000 0.000000 0.000000 6.999439 -12.381003 4.306958 -27.924950 2.707550 -38.986245 43.336577 1.815995 0.812229 -17.552247 -7.294056 27.129814 1.347498 1.298952 1.046310 0.000000 0.000000 0.000000 8.846148 -10.538083 3.962121 7.990017 1.251441 -1.095648 8.089472 2.104135 -0.907202 1.145394 0.372539 0.386409 0.000000 0.000000 0.000000 8.237990 1.226993 -0.483116 -1.477305 0.102544 -0.396434 -17.723876 0.697354 2.258736 0.000000 0.000000 0.000000 7.334202 1.332771 -0.701191 2.511038 -12.955919 -9.340583 -4.697054 -4.366486 -1.839951 -22.718280 -3.699343 -43.442722 -179.421939 -56.926758 179.063122 0.000000 0.000000 0.000000 7.345833 1.371135 -0.489239 0.647060 8.579739 10.439457 1.042346 3.940471 -0.848045 5.620661 5.127554 41.259090 -179.820658 87.246931 178.501311 0.000000 0.000000 0.000000 
1.085183 76.475510 0.137779 0.000000 0.000000 0.000000 7.350672 -11.446432 3.782888 -48.838626 4.913921 21.210119 42.163359 3.386687 7.943548 1.675100 0.902187 -22.582776 0.939564 0.469107 -0.910802 0.000000 0.000000 0.000000 7.033025 -12.387139 4.275557 -27.788949 2.699895 -38.951923 43.142620 1.754753 0.807500 -17.562412 -7.332207 27.173445 1.290138 1.279057 1.033035 0.000000 0.000000 0.000000 8.940713 -10.528683 3.909120 7.956471 1.274422 -1.127639 8.128085 2.095576 -0.932467 1.198559 0.398551 0.356184 0.000000 0.000000 0.000000 8.233554 1.220289 -0.496169 -1.465503 0.086558 -0.384376 -17.659381 0.726356 2.238822 0.000000 0.000000 0.000000 7.398152 1.323786 -0.695483 2.483682 -12.957379 -9.379488 -4.638244 -4.224789 -1.886999 -22.599921 -3.702670 -43.686371 -179.532014 -57.061787 178.938744 0.000000 0.000000 0.000000 7.377753 1.357648 -0.504474 0.689062 8.707380 10.488243 1.037618 4.023209 -0.879210 5.796557 5.001441 41.098823 179.748258 87.217937 178.994861 0.000000 0.000000 0.000000 
1.216750 76.503647 0.230499 0.000000 0.000000 0.000000 7.431175 -11.511169 3.715801 -48.885566 4.754745 21.258839 42.236076 3.470304 7.925916 1.524032 0.920017 -22.684523 0.973183 0.466184 -0.899936 0.000000 0.000000 0.000000 7.077203 -12.415454 4.202184 -27.662924 2.649370 -38.873882 42.866394 1.681977 0.792447 -17.663448 -7.398512 27.177348 1.295628 1.263105 1.010931 0.000000 0.000000 0.000000 9.053084 -10.519004 3.822223 7.934882 1.330902 -1.203993 8.157565 2.117853 -0.946780 1.159178 0.325817 0.319454 0.000000 0.000000 0.000000 8.212568 1.237539 -0.503678 -1.412731 0.008134 -0.379508 -17.504335 0.614818 2.230675 0.000000 0.000000 0.000000 7.446105 1.334133 -0.704368 2.450664 -12.957574 -9.464381 -4.572343 -4.184973 -1.814682 -22.593255 -3.602728 -44.192506 -179.690830 -57.226149 178.774847 0.000000 0.000000 0.000000 7.402286 1.376997 -0.506755 0.735706 8.904133 10.596691 0.996153 4.117148 -0.899627 6.228389 4.780360 40.793124 179.949844 87.248140 178.863762 0.000000 0.000000 0.000000 
1.381921 76.502357 0.288818 0.000000 0.000000 0.000000 7.504164 -11.634794 3.626889 -48.957194 4.578243 21.314920 42.398454 3.569152 7.924194 1.333605 0.941847 -22.835503 0.987800 0.466103 -0.869720 0.000000 0.000000 0.000000 7.130896 -12.481761 4.104510 -27.595009 2.576856 -38.779570 42.580192 1.625579 0.787120 -17.761897 -7.466221 27.189936 1.292524 1.253036 0.990982 0.000000 0.000000 0.000000 9.160191 -10.501765 3.726088 7.923982 1.413124 -1.315727 8.172989 2.162001 -0.954246 1.058213 0.247337 0.306799 0.000000 0.000000 0.000000 8.179461 1.274446 -0.507898 -1.350258 -0.103408 -0.384549 -17.324134 0.392428 2.224253 0.000000 0.000000 0.000000 7.472705 1.355653 -0.729627 2.425175 -12.956944 -9.548954 -4.527283 -4.234133 -1.677598 -22.714726 -3.420477 -44.798599 -179.868292 -57.349922 178.611236 0.000000 0.000000 0.000000 7.412362 1.418658 -0.500761 0.781555 9.137247 10.702529 0.890627 4.171355 -0.846777 6.804567 4.471066 40.366257 -179.088380 87.218285 177.970346 0.000000 0.000000 0.000000 
